<svg width="127" height="158" viewBox="0 0 127 158" fill="none" xmlns="http://www.w3.org/2000/svg">
<path fill-rule="evenodd" clip-rule="evenodd" d="M50.7317 128.037L93.664 127.968C102.549 127.968 109.12 126.027 113.376 122.144C117.707 118.187 119.872 112.437 119.872 104.896C119.872 100.267 119.088 96.4959 117.52 93.5839C115.952 90.5972 113.525 88.2079 110.24 86.4159C115.168 82.9812 117.632 77.5679 117.632 70.1759C117.632 62.7839 115.467 57.2585 111.136 53.5999C106.88 49.8665 100.309 47.9999 91.424 47.9999L78.4727 48.0429L73.5161 62.3359H89.296C96.0907 62.3359 99.488 65.2479 99.488 71.0719C99.488 77.1945 96.0907 80.2559 89.296 80.2559H67.3016L62.3301 94.5919H91.536C98.3307 94.5919 101.728 97.7279 101.728 104C101.728 110.421 98.3307 113.632 91.536 113.632H55.7272L50.7317 128.037Z" fill="white"/>
<path fill-rule="evenodd" clip-rule="evenodd" d="M75.7294 29.3599H36.568C28.28 29.3599 21.8213 31.3759 17.192 35.4079C12.6373 39.3652 10.36 45.2266 10.36 52.9919C10.36 60.7572 12.6373 66.6559 17.192 70.6879C21.8213 74.6452 28.28 76.6239 36.568 76.6239H59.3421L64.3515 62.1759H38.472C35.2613 62.1759 32.76 61.4666 30.968 60.0479C29.176 58.5546 28.28 56.2026 28.28 52.9919C28.28 49.7812 29.176 47.4666 30.968 46.0479C32.76 44.5546 35.2613 43.8079 38.472 43.8079L70.6995 43.867L75.7294 29.3599ZM47.576 110.56L52.5998 96.07L26.824 96.0252C18.7868 96.0112 12.264 102.523 12.264 110.56H47.576Z" fill="white"/>
<path d="M36.2154 157.08C35.834 157.865 39.4376 147.07 39.8099 145.964C42.3888 138.305 44.969 130.645 47.5514 122.987C57.9953 92.0143 68.5027 61.8433 79.4774 31.37C80.8867 27.4568 89.3211 3.19142 90.4405 0.911768C90.823 0.132765 87.2116 10.9466 86.8459 12.0336C84.2691 19.6933 81.6908 27.3531 79.1099 35.0115C68.6927 65.9236 58.1832 96.0178 47.2378 126.433C45.7651 130.525 37.4144 154.613 36.2154 157.08ZM90.2082 1.81203C90.163 1.79761 90.208 1.5437 90.3085 1.24491C90.409 0.946122 90.5271 0.715595 90.5723 0.730015C90.6174 0.744436 90.5725 0.998344 90.472 1.29713C90.3714 1.59592 90.2533 1.82645 90.2082 1.81203Z" fill="white"/>
</svg>
